<svg id="visual" viewBox="0 0 675 900" width="675" height="900" xmlns="http://www.w3.org/2000/svg" xmlns:xlink="http://www.w3.org/1999/xlink" version="1.1"><path d="M0 127L56.3 121C112.7 115 225.3 103 337.8 107.5C450.3 112 562.7 133 618.8 143.5L675 154L675 0L618.8 0C562.7 0 450.3 0 337.8 0C225.3 0 112.7 0 56.3 0L0 0Z" fill="#ffffff"></path><path d="M0 208L56.3 214C112.7 220 225.3 232 337.8 247C450.3 262 562.7 280 618.8 289L675 298L675 152L618.8 141.5C562.7 131 450.3 110 337.8 105.5C225.3 101 112.7 113 56.3 119L0 125Z" fill="#d9eaff"></path><path d="M0 640L56.3 613C112.7 586 225.3 532 337.8 496C450.3 460 562.7 442 618.8 433L675 424L675 296L618.8 287C562.7 278 450.3 260 337.8 245C225.3 230 112.7 218 56.3 212L0 206Z" fill="#afd5ff"></path><path d="M0 739L56.3 727C112.7 715 225.3 691 337.8 671.5C450.3 652 562.7 637 618.8 629.5L675 622L675 422L618.8 431C562.7 440 450.3 458 337.8 494C225.3 530 112.7 584 56.3 611L0 638Z" fill="#7ec1ff"></path><path d="M0 901L56.3 901C112.7 901 225.3 901 337.8 901C450.3 901 562.7 901 618.8 901L675 901L675 620L618.8 627.5C562.7 635 450.3 650 337.8 669.5C225.3 689 112.7 713 56.3 725L0 737Z" fill="#32adff"></path></svg>